<svg width="23" height="23" viewBox="0 0 23 23" fill="none" xmlns="http://www.w3.org/2000/svg">
<path d="M22.5482 12.6054C22.3824 12.4705 22.1813 12.3841 21.968 12.3561C21.7547 12.3281 21.5376 12.3596 21.3416 12.4471C20.1265 12.9944 18.8053 13.2761 17.469 13.2728C14.997 13.2698 12.6264 12.3051 10.8741 10.5889C9.12187 8.87269 8.13002 6.54424 8.11486 4.11122C8.1201 3.3487 8.21652 2.58944 8.40214 1.84911C8.44153 1.65178 8.42676 1.44769 8.35934 1.25785C8.29193 1.06802 8.17431 0.899307 8.0186 0.7691C7.8629 0.638893 7.67474 0.551899 7.47351 0.517082C7.27228 0.482264 7.06526 0.500882 6.87377 0.571017C5.07226 1.36831 3.50625 2.60325 2.32283 4.15983C1.13942 5.71642 0.377452 7.54354 0.108514 9.46957C-0.160423 11.3956 0.0724959 13.3573 0.785391 15.1704C1.49829 16.9835 2.66776 18.5885 4.18394 19.8345C5.70012 21.0806 7.51325 21.9269 9.45298 22.2938C11.3927 22.6608 13.3954 22.5364 15.2729 21.9324C17.1504 21.3283 18.841 20.2644 20.186 18.8407C21.5311 17.4169 22.4863 15.68 22.9619 13.793C23.0199 13.577 23.0115 13.3489 22.9379 13.1376C22.8643 12.9262 22.7287 12.741 22.5482 12.6054ZM11.6313 20.1722C9.70271 20.1588 7.8255 19.559 6.25666 18.4549C4.68782 17.3509 3.50406 15.7965 2.86745 14.0047C2.23083 12.2129 2.1725 10.2711 2.70042 8.44542C3.22835 6.6197 4.31673 4.99921 5.81654 3.80583V4.11122C5.81959 7.15204 7.04823 10.0675 9.23282 12.2176C11.4174 14.3678 14.3795 15.5771 17.469 15.5801C18.2802 15.583 19.0893 15.4996 19.8822 15.3313C19.0892 16.8079 17.9016 18.0434 16.4476 18.9044C14.9935 19.7655 13.3282 20.2195 11.6313 20.2174V20.1722Z" fill="#F2F2F2"/>
</svg>
